<svg xmlns="http://www.w3.org/2000/svg" width="70" height="16" viewBox="0 0 70 16" fill="none">
  <path fill-rule="evenodd" clip-rule="evenodd" d="M58.9244 15.7589H53.0361L60.7899 0.262695H66.9488L69.9997 15.7589H64.0972L63.8871 13.8263H59.6792L58.9244 15.7589ZM63.5347 10.1556L63.2606 7.31623C63.1965 6.64686 63.225 5.63921 63.2392 4.91947H63.0114L61.1032 10.1556H63.492H63.5347Z" fill="white"/>
  <path fill-rule="evenodd" clip-rule="evenodd" d="M44.7031 12.84L49.114 8.38477L52.8307 15.7586H46.1734L44.7031 12.84Z" fill="white"/>
  <path fill-rule="evenodd" clip-rule="evenodd" d="M35.1621 15.7586H41.8194L49.1139 8.38477H42.4566L35.1621 15.7586Z" fill="#F39200"/>
  <path fill-rule="evenodd" clip-rule="evenodd" d="M39.4805 0.262388L46.1342 0.258789L49.8544 7.63621H43.1971L39.4805 0.262388Z" fill="white"/>
  <path fill-rule="evenodd" clip-rule="evenodd" d="M50.4956 0.262695L47.6084 3.18127L49.8548 7.63652L57.1493 0.262695H50.4956Z" fill="#F39200"/>
  <path fill-rule="evenodd" clip-rule="evenodd" d="M31.8085 0.262695H37.3764L34.9448 15.7589H29.377L31.8085 0.262695Z" fill="white"/>
  <path fill-rule="evenodd" clip-rule="evenodd" d="M17.2936 15.7589H11.4053L19.1555 0.262695H25.3143L28.3653 15.7589H22.4663L22.2563 13.8263H18.0447L17.2936 15.7589ZM21.9038 10.1556L21.6297 7.31623C21.5656 6.64686 21.5941 5.63921 21.6083 4.91947H21.3805L19.4723 10.1556H21.8611H21.9038Z" fill="white"/>
  <path fill-rule="evenodd" clip-rule="evenodd" d="M12.2633 6.53891C11.5086 5.704 10.4976 4.98066 9.24087 4.98066C7.57121 4.98066 6.0048 6.31579 5.73423 8C5.47435 9.7094 6.70968 11.0193 8.37578 11.0193C9.65739 11.0193 10.7574 10.4723 11.7934 9.58704L10.7183 15.3882C9.75351 15.8129 7.65665 16 6.65628 16C2.28812 15.9964 -0.588391 12.5632 0.102256 8.14755C0.807143 3.62033 4.89406 0 9.38683 0C10.6471 0 11.918 0.237517 13.0252 0.636977L12.2633 6.53891Z" fill="white"/>
</svg>